<mxfile host="Electron" modified="2023-10-19T07:42:30.048Z" agent="Mozilla/5.0 (Windows NT 10.0; Win64; x64) AppleWebKit/537.36 (KHTML, like Gecko) draw.io/21.6.8 Chrome/114.0.5735.289 Electron/25.5.0 Safari/537.36" etag="_KfNhbb1MLoERRHc186w" version="21.6.8" type="device">
  <diagram name="Page-1" id="fc2ac565-0d4e-3f0d-88b0-a54af1634ed7">
    <mxGraphModel dx="1233" dy="788" grid="1" gridSize="10" guides="1" tooltips="1" connect="0" arrows="1" fold="1" page="1" pageScale="1.5" pageWidth="827" pageHeight="1169" background="none" math="0" shadow="0">
      <root>
        <mxCell id="0" style=";html=1;" />
        <mxCell id="1" style=";html=1;" parent="0" />
        <mxCell id="2" value="Task Name" style="strokeWidth=1;fontStyle=0;html=1;fontFamily=Times New Roman;fontSize=14;" parent="1" vertex="1">
          <mxGeometry x="40" y="570" width="320" height="30" as="geometry" />
        </mxCell>
        <mxCell id="67c90442a009f359-290" value="Title Approval (Gather Informatiion)" style="align=left;strokeColor=#CCCCCC;html=1;fontFamily=Times New Roman;fontSize=14;" parent="1" vertex="1">
          <mxGeometry x="40.000000000000625" y="600.0000000000006" width="319.9999999999994" height="30" as="geometry" />
        </mxCell>
        <mxCell id="4" value="Jan" style="strokeWidth=1;fontStyle=0;html=1;fontFamily=Times New Roman;fontSize=14;" parent="1" vertex="1">
          <mxGeometry x="360" y="570" width="70" height="30" as="geometry" />
        </mxCell>
        <mxCell id="67c90442a009f359-278" value="Feb" style="strokeWidth=1;fontStyle=0;html=1;fontFamily=Times New Roman;fontSize=14;" parent="1" vertex="1">
          <mxGeometry x="430" y="570" width="70" height="30" as="geometry" />
        </mxCell>
        <mxCell id="67c90442a009f359-279" value="Mar" style="strokeWidth=1;fontStyle=0;html=1;fontFamily=Times New Roman;fontSize=14;" parent="1" vertex="1">
          <mxGeometry x="500" y="570" width="70" height="30" as="geometry" />
        </mxCell>
        <mxCell id="67c90442a009f359-280" value="Apr" style="strokeWidth=1;fontStyle=0;html=1;fontFamily=Times New Roman;fontSize=14;" parent="1" vertex="1">
          <mxGeometry x="570" y="570" width="70" height="30" as="geometry" />
        </mxCell>
        <mxCell id="67c90442a009f359-281" value="May" style="strokeWidth=1;fontStyle=0;html=1;fontFamily=Times New Roman;fontSize=14;" parent="1" vertex="1">
          <mxGeometry x="640" y="570" width="70" height="30" as="geometry" />
        </mxCell>
        <mxCell id="67c90442a009f359-282" value="June" style="strokeWidth=1;fontStyle=0;html=1;fontFamily=Times New Roman;fontSize=14;" parent="1" vertex="1">
          <mxGeometry x="710" y="570" width="70" height="30" as="geometry" />
        </mxCell>
        <mxCell id="67c90442a009f359-283" value="July" style="strokeWidth=1;fontStyle=0;html=1;fontFamily=Times New Roman;fontSize=14;" parent="1" vertex="1">
          <mxGeometry x="780" y="570" width="70" height="30" as="geometry" />
        </mxCell>
        <mxCell id="67c90442a009f359-284" value="Aug" style="strokeWidth=1;fontStyle=0;html=1;fontFamily=Times New Roman;fontSize=14;" parent="1" vertex="1">
          <mxGeometry x="850" y="570" width="70" height="30" as="geometry" />
        </mxCell>
        <mxCell id="67c90442a009f359-285" value="Sept" style="strokeWidth=1;fontStyle=0;html=1;fontFamily=Times New Roman;fontSize=14;" parent="1" vertex="1">
          <mxGeometry x="920" y="570" width="70" height="30" as="geometry" />
        </mxCell>
        <mxCell id="67c90442a009f359-286" value="Oct" style="strokeWidth=1;fontStyle=0;html=1;fontFamily=Times New Roman;fontSize=14;" parent="1" vertex="1">
          <mxGeometry x="990" y="570" width="70" height="30" as="geometry" />
        </mxCell>
        <mxCell id="67c90442a009f359-287" value="Nov" style="strokeWidth=1;fontStyle=0;html=1;fontFamily=Times New Roman;fontSize=14;" parent="1" vertex="1">
          <mxGeometry x="1060" y="570" width="70" height="30" as="geometry" />
        </mxCell>
        <mxCell id="67c90442a009f359-288" value="Dec" style="strokeWidth=1;fontStyle=0;html=1;fontFamily=Times New Roman;fontSize=14;" parent="1" vertex="1">
          <mxGeometry x="1130" y="570" width="70" height="30" as="geometry" />
        </mxCell>
        <mxCell id="67c90442a009f359-298" value="" style="align=left;strokeColor=#CCCCCC;html=1;fontFamily=Times New Roman;fontSize=14;" parent="1" vertex="1">
          <mxGeometry x="360" y="600" width="840" height="30" as="geometry" />
        </mxCell>
        <mxCell id="67c90442a009f359-299" value="" style="whiteSpace=wrap;html=1;strokeWidth=2;fillColor=#CCCCCC;gradientColor=none;fontSize=14;align=center;strokeColor=#999999;fontFamily=Times New Roman;" parent="1" vertex="1">
          <mxGeometry x="443" y="600" width="60" height="30" as="geometry" />
        </mxCell>
        <mxCell id="SwtLhn9vPLhsi7NcjeYA-110" value="Chapter 1&amp;nbsp;" style="align=left;strokeColor=#CCCCCC;html=1;fontFamily=Times New Roman;fontSize=14;" parent="1" vertex="1">
          <mxGeometry x="40.000000000000625" y="630.0000000000006" width="319.9999999999994" height="30" as="geometry" />
        </mxCell>
        <mxCell id="SwtLhn9vPLhsi7NcjeYA-111" value="" style="align=left;strokeColor=#CCCCCC;html=1;fontFamily=Times New Roman;fontSize=14;" parent="1" vertex="1">
          <mxGeometry x="360" y="630" width="840" height="30" as="geometry" />
        </mxCell>
        <mxCell id="SwtLhn9vPLhsi7NcjeYA-112" value="" style="align=left;strokeColor=#CCCCCC;html=1;fontFamily=Times New Roman;fontSize=14;" parent="1" vertex="1">
          <mxGeometry x="360" y="660" width="840" height="30" as="geometry" />
        </mxCell>
        <mxCell id="SwtLhn9vPLhsi7NcjeYA-113" value="" style="align=left;strokeColor=#CCCCCC;html=1;fontFamily=Times New Roman;fontSize=14;" parent="1" vertex="1">
          <mxGeometry x="360" y="690" width="840" height="30" as="geometry" />
        </mxCell>
        <mxCell id="SwtLhn9vPLhsi7NcjeYA-114" value="Chapter 2&amp;nbsp;" style="align=left;strokeColor=#CCCCCC;html=1;fontFamily=Times New Roman;fontSize=14;" parent="1" vertex="1">
          <mxGeometry x="40.000000000000625" y="660.0000000000006" width="319.9999999999994" height="30" as="geometry" />
        </mxCell>
        <mxCell id="SwtLhn9vPLhsi7NcjeYA-115" value="Chapter 3" style="align=left;strokeColor=#CCCCCC;html=1;fontFamily=Times New Roman;fontSize=14;" parent="1" vertex="1">
          <mxGeometry x="40.000000000000625" y="690.0000000000006" width="319.9999999999994" height="30" as="geometry" />
        </mxCell>
        <mxCell id="SwtLhn9vPLhsi7NcjeYA-116" value="App Development&amp;nbsp;" style="align=left;strokeColor=#CCCCCC;html=1;fontFamily=Times New Roman;fontSize=14;" parent="1" vertex="1">
          <mxGeometry x="40.000000000000625" y="720.0000000000006" width="319.9999999999994" height="30" as="geometry" />
        </mxCell>
        <mxCell id="SwtLhn9vPLhsi7NcjeYA-117" value="" style="align=left;strokeColor=#CCCCCC;html=1;fontFamily=Times New Roman;fontSize=14;" parent="1" vertex="1">
          <mxGeometry x="360" y="720" width="840" height="30" as="geometry" />
        </mxCell>
        <mxCell id="SwtLhn9vPLhsi7NcjeYA-123" value="" style="whiteSpace=wrap;html=1;strokeWidth=2;fillColor=#CCCCCC;gradientColor=none;fontSize=14;align=center;strokeColor=#999999;fontFamily=Times New Roman;" parent="1" vertex="1">
          <mxGeometry x="503" y="630" width="60" height="30" as="geometry" />
        </mxCell>
        <mxCell id="SwtLhn9vPLhsi7NcjeYA-124" value="" style="whiteSpace=wrap;html=1;strokeWidth=2;fillColor=#CCCCCC;gradientColor=none;fontSize=14;align=center;strokeColor=#999999;fontFamily=Times New Roman;" parent="1" vertex="1">
          <mxGeometry x="563" y="660" width="70" height="30" as="geometry" />
        </mxCell>
        <mxCell id="SwtLhn9vPLhsi7NcjeYA-125" value="" style="whiteSpace=wrap;html=1;strokeWidth=2;fillColor=#CCCCCC;gradientColor=none;fontSize=14;align=center;strokeColor=#999999;fontFamily=Times New Roman;" parent="1" vertex="1">
          <mxGeometry x="633" y="690" width="80" height="30" as="geometry" />
        </mxCell>
        <mxCell id="SwtLhn9vPLhsi7NcjeYA-126" value="" style="whiteSpace=wrap;html=1;strokeWidth=2;fillColor=#CCCCCC;gradientColor=none;fontSize=14;align=center;strokeColor=#999999;fontFamily=Times New Roman;" parent="1" vertex="1">
          <mxGeometry x="910" y="720" width="113" height="30" as="geometry" />
        </mxCell>
        <mxCell id="SwtLhn9vPLhsi7NcjeYA-127" value="" style="align=left;strokeColor=#CCCCCC;html=1;fontFamily=Times New Roman;fontSize=14;" parent="1" vertex="1">
          <mxGeometry x="360" y="750" width="840" height="30" as="geometry" />
        </mxCell>
        <mxCell id="SwtLhn9vPLhsi7NcjeYA-128" value="Chapter 4" style="align=left;strokeColor=#CCCCCC;html=1;fontFamily=Times New Roman;fontSize=14;" parent="1" vertex="1">
          <mxGeometry x="40.000000000000625" y="750.0000000000006" width="319.9999999999994" height="30" as="geometry" />
        </mxCell>
        <mxCell id="SwtLhn9vPLhsi7NcjeYA-129" value="" style="whiteSpace=wrap;html=1;strokeWidth=2;fillColor=#CCCCCC;gradientColor=none;fontSize=14;align=center;strokeColor=#999999;fontFamily=Times New Roman;" parent="1" vertex="1">
          <mxGeometry x="1013" y="750" width="80" height="30" as="geometry" />
        </mxCell>
      </root>
    </mxGraphModel>
  </diagram>
</mxfile>
